# xmcd
#
# Track frame offsets:
# 150
# 31508
# 59968
#
# Disc length: 1264 seconds
#
#
# Revision: 0
# Processed by: cddbd v1.5.1PL2 Copyright (c) Steve Scherf et al.
# Submitted via: FreeRIP 2.92 
#
DISCID=2104ee03
DTITLE=Agnosis - Hecate
DYEAR=2005
DGENRE=Darkwave
TTITLE0=Unholy Lord
TTITLE1=and Yet We Fight To Win
TTITLE2=the End Times
EXTD=ripped/spread by cleve\n
EXTT0=
EXTT1=
EXTT2=
PLAYORDER=
